<svg xmlns="http://www.w3.org/2000/svg" xml:space="preserve" width="2000" height="1500" data-id="lg_Q4AUrKiBP81r53glMl" data-version="1"><path fill="#398378" stroke="transparent" d="M0 0h2000v1500H0z"/><g data-padding="20"><g transform="translate(-1525.51 -1150.423)scale(2.46425)"><path fill="#fff" d="M800.19 875.421h-49.14q-.61 0-.61-.76l.16-104.51q0-.61.61-.61h48.83q.61 0 .61.76v17.04q0 .61-.61.61h-31.19v23.73h31.19q.61 0 .61.61l.15 17.19q0 .61-.61.61h-31.34v26.62h31.34q.61 0 .61.76v17.34q0 .61-.61.61m7.45-.76 18.87-104.51q.15-.61.76-.61h22.05q.61 0 .76.61l18.11 104.51q.15.76-.61.76h-16.89q-.61 0-.76-.76l-1.67-11.11h-20.69l-1.67 11.11q-.15.76-.76.76h-16.89q-.61 0-.61-.76m29.82-70.13-6.85 42.75h14.61l-6.24-42.75-.91-5.63Zm63.13 72.41q-8.22 0-14.98-4.18-6.77-4.19-10.81-11.11-4.03-6.92-4.03-15.29v-6.99q0-.76.76-.76h17.04q.61 0 .61.76v6.99q0 5.02 3.35 8.6 3.34 3.57 8.06 3.57t8.06-3.65q3.35-3.65 3.35-8.52 0-5.62-7.3-9.73-2.44-1.37-7.61-4.26t-9.74-5.48q-8.36-4.87-12.39-12.24-4.03-7.38-4.03-16.66 0-8.52 4.1-15.29 4.11-6.77 10.88-10.72 6.77-3.96 14.68-3.96 8.06 0 14.83 4.03t10.8 10.8 4.03 15.14v12.47q0 .61-.61.61h-17.03q-.61 0-.61-.61l-.15-12.47q0-5.32-3.35-8.67t-7.91-3.35q-4.72 0-8.06 3.58-3.35 3.57-3.35 8.44 0 5.02 2.13 8.37 2.13 3.34 7.76 6.39.76.45 2.96 1.59 2.21 1.14 4.8 2.59 2.58 1.44 4.64 2.51 2.05 1.06 2.51 1.37 7.6 4.26 12.01 10.42 4.42 6.16 4.42 15.13 0 8.68-4.04 15.6-4.03 6.92-10.8 10.95t-14.98 4.03m90.21-1.52h-49.14q-.61 0-.61-.76l.16-104.51q0-.61.6-.61h48.84q.6 0 .6.76v17.04q0 .61-.6.61h-31.19v23.73h31.19q.6 0 .6.61l.16 17.19q0 .61-.61.61h-31.34v26.62h31.34q.61 0 .61.76v17.34q0 .61-.61.61m31.94 0h-17.19q-.6 0-.6-.76l.3-104.51q0-.61.61-.61h18.56q.61 0 1.06.61l13.85 20.08 13.84-20.08q.45-.61 1.06-.61h18.71q.61 0 .61.61l.31 104.51q0 .76-.61.76h-17.19q-.61 0-.61-.76l-.15-77.58-15.97 23.12-15.83-23.12-.15 77.58q0 .76-.61.76m58.72-.76 18.87-104.51q.15-.61.76-.61h22.05q.61 0 .76.61l18.11 104.51q.15.76-.61.76h-16.89q-.61 0-.76-.76l-1.67-11.11h-20.69l-1.67 11.11q-.15.76-.76.76h-16.89q-.61 0-.61-.76m29.82-70.13-6.85 42.75h14.61l-6.24-42.75-.91-5.63Zm58.12 70.89h-17.19q-.61 0-.61-.76l.31-104.51q0-.61.6-.61h30.73q8.22 0 15.14 4.03 6.92 4.04 11.03 10.8 4.1 6.77 4.1 15.29 0 5.63-1.67 10.12t-3.95 7.61q-2.29 3.11-4.11 4.63 8.21 9.13 8.21 21.45l.16 31.19q0 .76-.76.76h-17.19q-.61 0-.61-.46v-31.49q0-5.47-3.88-9.5t-9.51-4.03h-10.04l-.15 44.72q0 .76-.61.76m.76-87.62v23.88h13.08q4.72 0 8.37-3.5t3.65-8.52q0-4.87-3.57-8.36-3.58-3.5-8.45-3.5Zm84.11 87.62h-17.19q-.6 0-.6-.76v-86.71h-19.78q-.76 0-.76-.76l.15-17.04q0-.61.61-.61h57.81q.76 0 .76.61v17.04q0 .76-.61.76h-19.93l.15 86.71q0 .76-.61.76"/><rect width="588" height="180.8" x="315.859" y="276.401" fill="none" rx="0" ry="0" transform="translate(415 462.11)"/><path fill="#fff" d="M980.736 689.601v28.413h58.326v-28.413a2.46 2.46 0 1 1 4.92 0v30.873a2.46 2.46 0 0 1-2.46 2.46h-63.246a2.46 2.46 0 0 1-2.46-2.46v-30.873a2.46 2.46 0 0 1 4.92 0m77.637 28.413H1056v-27.478a2.46 2.46 0 1 0-4.92 0v29.938a2.46 2.46 0 0 0 2.46 2.46h4.834a3.555 3.555 0 0 1 0 7.097h-96.948a3.555 3.555 0 0 1 0-7.097h4.834a2.46 2.46 0 0 0 2.46-2.46v-29.938a2.46 2.46 0 0 0-4.92 0v27.478h-2.374a8.475 8.475 0 0 0 0 16.937h96.948a8.475 8.475 0 0 0 0-16.937m-9.298-35.793a16.97 16.97 0 0 1-13.1-6.21 16.97 16.97 0 0 1-13.087 6.21 16.85 16.85 0 0 1-12.989-6.064 16.85 16.85 0 0 1-12.989 6.064 16.97 16.97 0 0 1-13.087-6.224 16.97 16.97 0 0 1-13.1 6.224h-1.156a15.5 15.5 0 0 1-12.398-7.687 16.48 16.48 0 0 1-.923-15.265l13.641-30.32a9.96 9.96 0 0 1 9.065-5.866h61.894a9.96 9.96 0 0 1 9.065 5.867l13.628 30.32a16.48 16.48 0 0 1-.922 15.264 15.5 15.5 0 0 1-12.399 7.65q-.553.037-1.144.037m0-4.92h.825a10.7 10.7 0 0 0 8.511-5.277 11.56 11.56 0 0 0 .69-10.738l-13.679-30.32a5.04 5.04 0 0 0-4.575-2.963h-61.894a5.04 5.04 0 0 0-4.575 2.964l-13.678 30.32a11.56 11.56 0 0 0 .652 10.713 10.7 10.7 0 0 0 8.512 5.276h.824a12.05 12.05 0 0 0 10.922-6.863 2.46 2.46 0 0 1 4.453 0 12.05 12.05 0 0 0 10.86 6.913 11.93 11.93 0 0 0 10.788-6.74 2.46 2.46 0 0 1 4.415 0 11.93 11.93 0 0 0 10.787 6.74 12.05 12.05 0 0 0 10.85-6.913 2.46 2.46 0 0 1 4.427 0 12.05 12.05 0 0 0 10.886 6.888"/></g><path fill="transparent" stroke="transparent" stroke-width="2.551" d="M250 372.449h1500v755.102H250z"/></g></svg>